<mxfile host="app.diagrams.net" modified="2020-04-04T18:16:48.103Z" agent="5.0 (Windows)" etag="QcyBioohUQPQbo8kHycF" version="12.9.7" type="github" pages="2">
  <diagram id="vwBpfIJJqrl7qLxSZMjy" name="VGZ">
    <mxGraphModel dx="1422" dy="791" grid="0" gridSize="10" guides="1" tooltips="1" connect="1" arrows="1" fold="1" page="1" pageScale="1" pageWidth="827" pageHeight="1169" background="#FFFFFF" math="0" shadow="0">
      <root>
        <mxCell id="0" />
        <mxCell id="1" parent="0" />
        <mxCell id="2dIn2ky05wLc2S2Yu5g8-7" style="edgeStyle=orthogonalEdgeStyle;rounded=0;jumpStyle=arc;orthogonalLoop=1;jettySize=auto;html=1;exitX=0.7;exitY=1;exitDx=0;exitDy=0;exitPerimeter=0;entryX=0.7;entryY=0;entryDx=0;entryDy=0;entryPerimeter=0;endArrow=none;endFill=0;strokeColor=#000000;fontColor=#000000;labelBackgroundColor=none;" parent="1" source="2dIn2ky05wLc2S2Yu5g8-1" target="2dIn2ky05wLc2S2Yu5g8-2" edge="1">
          <mxGeometry relative="1" as="geometry">
            <Array as="points">
              <mxPoint x="671" y="387" />
              <mxPoint x="671" y="387" />
            </Array>
          </mxGeometry>
        </mxCell>
        <mxCell id="2dIn2ky05wLc2S2Yu5g8-21" style="edgeStyle=orthogonalEdgeStyle;rounded=0;jumpStyle=arc;orthogonalLoop=1;jettySize=auto;html=1;exitX=0.7;exitY=0;exitDx=0;exitDy=0;exitPerimeter=0;endArrow=none;endFill=0;strokeColor=#000000;fontColor=#000000;labelBackgroundColor=none;" parent="1" source="2dIn2ky05wLc2S2Yu5g8-1" target="2dIn2ky05wLc2S2Yu5g8-22" edge="1">
          <mxGeometry relative="1" as="geometry">
            <mxPoint x="674.8620689655172" y="140" as="targetPoint" />
            <Array as="points">
              <mxPoint x="671" y="180" />
              <mxPoint x="695" y="180" />
            </Array>
          </mxGeometry>
        </mxCell>
        <mxCell id="2dIn2ky05wLc2S2Yu5g8-1" value="&lt;div&gt;Q2&lt;/div&gt;&lt;div&gt;BC556&lt;br&gt;&lt;/div&gt;" style="verticalLabelPosition=bottom;shadow=0;dashed=0;align=left;html=1;verticalAlign=top;shape=mxgraph.electrical.transistors.pnp_transistor_1;strokeColor=#000000;fontColor=#000000;labelBackgroundColor=none;fillColor=none;" parent="1" vertex="1">
          <mxGeometry x="618.5" y="210" width="76" height="80" as="geometry" />
        </mxCell>
        <mxCell id="2dIn2ky05wLc2S2Yu5g8-37" style="edgeStyle=orthogonalEdgeStyle;rounded=0;jumpStyle=arc;orthogonalLoop=1;jettySize=auto;html=1;exitX=0.7;exitY=1;exitDx=0;exitDy=0;exitPerimeter=0;endArrow=none;endFill=0;strokeColor=#000000;fontColor=#000000;labelBackgroundColor=none;" parent="1" source="2dIn2ky05wLc2S2Yu5g8-1" target="2dIn2ky05wLc2S2Yu5g8-23" edge="1">
          <mxGeometry relative="1" as="geometry">
            <Array as="points">
              <mxPoint x="671" y="370" />
              <mxPoint x="709" y="370" />
              <mxPoint x="709" y="130" />
              <mxPoint x="645" y="130" />
            </Array>
          </mxGeometry>
        </mxCell>
        <mxCell id="u6N9TvEK20pb86zufqTK-22" style="edgeStyle=orthogonalEdgeStyle;rounded=0;orthogonalLoop=1;jettySize=auto;html=1;exitX=0.7;exitY=1;exitDx=0;exitDy=0;exitPerimeter=0;strokeColor=#000000;fontColor=#000000;endArrow=none;endFill=0;jumpStyle=arc;" parent="1" source="2dIn2ky05wLc2S2Yu5g8-2" target="u6N9TvEK20pb86zufqTK-24" edge="1">
          <mxGeometry relative="1" as="geometry">
            <mxPoint x="600" y="110" as="targetPoint" />
            <Array as="points">
              <mxPoint x="671" y="503" />
              <mxPoint x="726" y="503" />
              <mxPoint x="726" y="160" />
              <mxPoint x="595" y="160" />
            </Array>
          </mxGeometry>
        </mxCell>
        <mxCell id="2dIn2ky05wLc2S2Yu5g8-2" value="&lt;div align=&quot;left&quot;&gt;Q3&lt;br&gt;&lt;/div&gt;&lt;div align=&quot;left&quot;&gt;BC337&lt;/div&gt;" style="verticalLabelPosition=bottom;shadow=0;dashed=0;align=left;html=1;verticalAlign=top;shape=mxgraph.electrical.transistors.npn_transistor_1;strokeColor=#000000;fontColor=#000000;labelBackgroundColor=none;fillColor=none;" parent="1" vertex="1">
          <mxGeometry x="618.5" y="410" width="76" height="80" as="geometry" />
        </mxCell>
        <mxCell id="2dIn2ky05wLc2S2Yu5g8-6" style="edgeStyle=orthogonalEdgeStyle;rounded=0;jumpStyle=arc;orthogonalLoop=1;jettySize=auto;html=1;exitX=0.7;exitY=1;exitDx=0;exitDy=0;exitPerimeter=0;entryX=0.5;entryY=0;entryDx=0;entryDy=0;entryPerimeter=0;endArrow=none;endFill=0;strokeColor=#000000;fontColor=#000000;labelBackgroundColor=none;" parent="1" source="2dIn2ky05wLc2S2Yu5g8-3" target="2dIn2ky05wLc2S2Yu5g8-5" edge="1">
          <mxGeometry relative="1" as="geometry">
            <Array as="points">
              <mxPoint x="511" y="390" />
              <mxPoint x="583" y="390" />
            </Array>
          </mxGeometry>
        </mxCell>
        <mxCell id="2dIn2ky05wLc2S2Yu5g8-3" value="&lt;div&gt;Q1&lt;br&gt;&lt;/div&gt;&lt;div&gt;BC337&lt;/div&gt;" style="verticalLabelPosition=bottom;shadow=0;dashed=0;align=left;html=1;verticalAlign=top;shape=mxgraph.electrical.transistors.npn_transistor_1;strokeColor=#000000;fontColor=#000000;labelBackgroundColor=none;fillColor=none;" parent="1" vertex="1">
          <mxGeometry x="458" y="290" width="76" height="80" as="geometry" />
        </mxCell>
        <mxCell id="2dIn2ky05wLc2S2Yu5g8-5" value="" style="pointerEvents=1;verticalLabelPosition=bottom;shadow=0;dashed=0;align=center;html=1;verticalAlign=top;shape=mxgraph.electrical.signal_sources.protective_earth;strokeColor=#000000;fontColor=#000000;labelBackgroundColor=none;" parent="1" vertex="1">
          <mxGeometry x="570" y="410" width="25" height="20" as="geometry" />
        </mxCell>
        <mxCell id="2dIn2ky05wLc2S2Yu5g8-11" style="edgeStyle=orthogonalEdgeStyle;rounded=0;jumpStyle=arc;orthogonalLoop=1;jettySize=auto;html=1;exitX=1;exitY=0.5;exitDx=0;exitDy=0;exitPerimeter=0;entryX=0;entryY=0.5;entryDx=0;entryDy=0;entryPerimeter=0;endArrow=none;endFill=0;strokeColor=#000000;fontColor=#000000;labelBackgroundColor=none;" parent="1" source="2dIn2ky05wLc2S2Yu5g8-10" target="2dIn2ky05wLc2S2Yu5g8-1" edge="1">
          <mxGeometry relative="1" as="geometry">
            <Array as="points">
              <mxPoint x="609" y="250" />
            </Array>
          </mxGeometry>
        </mxCell>
        <mxCell id="2dIn2ky05wLc2S2Yu5g8-12" style="edgeStyle=orthogonalEdgeStyle;rounded=0;jumpStyle=arc;orthogonalLoop=1;jettySize=auto;html=1;exitX=0;exitY=0.5;exitDx=0;exitDy=0;exitPerimeter=0;entryX=0.7;entryY=0;entryDx=0;entryDy=0;entryPerimeter=0;endArrow=none;endFill=0;strokeColor=#000000;fontColor=#000000;labelBackgroundColor=none;" parent="1" source="2dIn2ky05wLc2S2Yu5g8-10" target="2dIn2ky05wLc2S2Yu5g8-3" edge="1">
          <mxGeometry relative="1" as="geometry">
            <Array as="points">
              <mxPoint x="511" y="250" />
              <mxPoint x="511" y="290" />
            </Array>
          </mxGeometry>
        </mxCell>
        <mxCell id="2dIn2ky05wLc2S2Yu5g8-10" value="&lt;div&gt;R1&lt;/div&gt;&lt;div&gt;3.3k&lt;/div&gt;" style="pointerEvents=1;verticalLabelPosition=bottom;shadow=0;dashed=0;align=center;html=1;verticalAlign=top;shape=mxgraph.electrical.resistors.resistor_2;strokeColor=#000000;fontColor=#000000;labelBackgroundColor=none;" parent="1" vertex="1">
          <mxGeometry x="518.5" y="240" width="100" height="20" as="geometry" />
        </mxCell>
        <mxCell id="2dIn2ky05wLc2S2Yu5g8-14" style="edgeStyle=orthogonalEdgeStyle;rounded=0;jumpStyle=arc;orthogonalLoop=1;jettySize=auto;html=1;exitX=1;exitY=0.5;exitDx=0;exitDy=0;exitPerimeter=0;entryX=0;entryY=0.5;entryDx=0;entryDy=0;entryPerimeter=0;endArrow=none;endFill=0;strokeColor=#000000;fontColor=#000000;labelBackgroundColor=none;" parent="1" source="2dIn2ky05wLc2S2Yu5g8-13" target="2dIn2ky05wLc2S2Yu5g8-3" edge="1">
          <mxGeometry relative="1" as="geometry" />
        </mxCell>
        <mxCell id="2dIn2ky05wLc2S2Yu5g8-18" style="edgeStyle=orthogonalEdgeStyle;rounded=0;jumpStyle=arc;orthogonalLoop=1;jettySize=auto;html=1;exitX=0;exitY=0.5;exitDx=0;exitDy=0;exitPerimeter=0;endArrow=none;endFill=0;strokeColor=#000000;fontColor=#000000;labelBackgroundColor=none;" parent="1" source="2dIn2ky05wLc2S2Yu5g8-13" target="2dIn2ky05wLc2S2Yu5g8-19" edge="1">
          <mxGeometry relative="1" as="geometry">
            <mxPoint x="300" y="210" as="targetPoint" />
            <Array as="points">
              <mxPoint x="430" y="540" />
            </Array>
          </mxGeometry>
        </mxCell>
        <mxCell id="2dIn2ky05wLc2S2Yu5g8-13" value="&lt;div&gt;R2&lt;/div&gt;&lt;div&gt;3.3k&lt;/div&gt;" style="pointerEvents=1;verticalLabelPosition=middle;shadow=0;dashed=0;align=center;html=1;verticalAlign=middle;shape=mxgraph.electrical.resistors.resistor_2;strokeColor=#000000;fontColor=#000000;labelBackgroundColor=none;direction=north;horizontal=1;labelPosition=left;spacingLeft=0;spacingRight=20;" parent="1" vertex="1">
          <mxGeometry x="420" y="330" width="20" height="100" as="geometry" />
        </mxCell>
        <mxCell id="2dIn2ky05wLc2S2Yu5g8-16" style="edgeStyle=orthogonalEdgeStyle;rounded=0;jumpStyle=arc;orthogonalLoop=1;jettySize=auto;html=1;exitX=1;exitY=0.5;exitDx=0;exitDy=0;exitPerimeter=0;entryX=0;entryY=0.5;entryDx=0;entryDy=0;entryPerimeter=0;endArrow=none;endFill=0;strokeColor=#000000;fontColor=#000000;labelBackgroundColor=none;" parent="1" source="2dIn2ky05wLc2S2Yu5g8-15" target="2dIn2ky05wLc2S2Yu5g8-2" edge="1">
          <mxGeometry relative="1" as="geometry" />
        </mxCell>
        <mxCell id="2dIn2ky05wLc2S2Yu5g8-17" style="edgeStyle=orthogonalEdgeStyle;rounded=0;jumpStyle=arc;orthogonalLoop=1;jettySize=auto;html=1;exitX=0;exitY=0.5;exitDx=0;exitDy=0;exitPerimeter=0;endArrow=none;endFill=0;strokeColor=#000000;fontColor=#000000;labelBackgroundColor=none;" parent="1" source="2dIn2ky05wLc2S2Yu5g8-15" target="2dIn2ky05wLc2S2Yu5g8-20" edge="1">
          <mxGeometry relative="1" as="geometry">
            <mxPoint x="260.0000000000001" y="210" as="targetPoint" />
            <Array as="points">
              <mxPoint x="360" y="450" />
            </Array>
          </mxGeometry>
        </mxCell>
        <mxCell id="2dIn2ky05wLc2S2Yu5g8-15" value="&lt;div&gt;R3&lt;/div&gt;&lt;div&gt;3.3k&lt;/div&gt;" style="pointerEvents=1;verticalLabelPosition=bottom;shadow=0;dashed=0;align=center;html=1;verticalAlign=top;shape=mxgraph.electrical.resistors.resistor_2;strokeColor=#000000;fontColor=#000000;labelBackgroundColor=none;" parent="1" vertex="1">
          <mxGeometry x="470" y="440" width="100" height="20" as="geometry" />
        </mxCell>
        <mxCell id="2dIn2ky05wLc2S2Yu5g8-19" value="&lt;div&gt;Unlock&lt;/div&gt;" style="text;html=1;align=center;verticalAlign=middle;resizable=0;points=[];autosize=1;strokeColor=#000000;fontColor=#000000;labelBackgroundColor=none;" parent="1" vertex="1">
          <mxGeometry x="740" y="530" width="60" height="20" as="geometry" />
        </mxCell>
        <mxCell id="2dIn2ky05wLc2S2Yu5g8-20" value="Lock" style="text;html=1;align=center;verticalAlign=middle;resizable=0;points=[];autosize=1;strokeColor=#000000;fontColor=#000000;labelBackgroundColor=none;" parent="1" vertex="1">
          <mxGeometry x="740" y="601" width="40" height="20" as="geometry" />
        </mxCell>
        <mxCell id="2dIn2ky05wLc2S2Yu5g8-22" value="&lt;div&gt;P1&lt;/div&gt;" style="text;html=1;align=center;verticalAlign=middle;resizable=0;points=[];autosize=1;strokeColor=#000000;fontColor=#000000;labelBackgroundColor=none;" parent="1" vertex="1">
          <mxGeometry x="680" y="80" width="30" height="20" as="geometry" />
        </mxCell>
        <mxCell id="2dIn2ky05wLc2S2Yu5g8-23" value="&lt;div&gt;P2&lt;/div&gt;" style="text;html=1;align=center;verticalAlign=middle;resizable=0;points=[];autosize=1;strokeColor=#000000;fontColor=#000000;labelBackgroundColor=none;" parent="1" vertex="1">
          <mxGeometry x="630" y="80" width="30" height="20" as="geometry" />
        </mxCell>
        <mxCell id="u6N9TvEK20pb86zufqTK-24" value="&lt;div&gt;P4&lt;/div&gt;" style="text;html=1;align=center;verticalAlign=middle;resizable=0;points=[];autosize=1;strokeColor=#000000;fontColor=#000000;labelBackgroundColor=none;" parent="1" vertex="1">
          <mxGeometry x="580" y="80" width="30" height="20" as="geometry" />
        </mxCell>
        <mxCell id="u6N9TvEK20pb86zufqTK-26" value="&lt;font style=&quot;font-size: 48px&quot;&gt;VGZ&lt;/font&gt;" style="text;html=1;align=center;verticalAlign=middle;resizable=0;points=[];autosize=1;fontColor=#000000;" parent="1" vertex="1">
          <mxGeometry x="230" y="30" width="120" height="30" as="geometry" />
        </mxCell>
      </root>
    </mxGraphModel>
  </diagram>
  <diagram id="pV5Z0n2KUyFRgJznPkW3" name="VGZv2">
    <mxGraphModel dx="1422" dy="791" grid="0" gridSize="10" guides="1" tooltips="1" connect="1" arrows="1" fold="1" page="1" pageScale="1" pageWidth="827" pageHeight="1169" background="#ffffff" math="0" shadow="0">
      <root>
        <mxCell id="0f3AWLR8AiS9K6v6LXAR-0" />
        <mxCell id="0f3AWLR8AiS9K6v6LXAR-1" parent="0f3AWLR8AiS9K6v6LXAR-0" />
        <mxCell id="0f3AWLR8AiS9K6v6LXAR-2" style="edgeStyle=orthogonalEdgeStyle;rounded=0;jumpStyle=arc;orthogonalLoop=1;jettySize=auto;html=1;exitX=0.7;exitY=1;exitDx=0;exitDy=0;exitPerimeter=0;entryX=0.7;entryY=0;entryDx=0;entryDy=0;entryPerimeter=0;endArrow=none;endFill=0;strokeColor=#000000;fontColor=#000000;labelBackgroundColor=none;" edge="1" parent="0f3AWLR8AiS9K6v6LXAR-1" source="0f3AWLR8AiS9K6v6LXAR-4" target="0f3AWLR8AiS9K6v6LXAR-7">
          <mxGeometry relative="1" as="geometry">
            <Array as="points">
              <mxPoint x="671" y="387" />
              <mxPoint x="671" y="387" />
            </Array>
          </mxGeometry>
        </mxCell>
        <mxCell id="0f3AWLR8AiS9K6v6LXAR-3" style="edgeStyle=orthogonalEdgeStyle;rounded=0;jumpStyle=arc;orthogonalLoop=1;jettySize=auto;html=1;exitX=0.7;exitY=0;exitDx=0;exitDy=0;exitPerimeter=0;endArrow=none;endFill=0;strokeColor=#000000;fontColor=#000000;labelBackgroundColor=none;" edge="1" parent="0f3AWLR8AiS9K6v6LXAR-1" source="0f3AWLR8AiS9K6v6LXAR-4" target="0f3AWLR8AiS9K6v6LXAR-22">
          <mxGeometry relative="1" as="geometry">
            <mxPoint x="674.8620689655172" y="140" as="targetPoint" />
            <Array as="points">
              <mxPoint x="671" y="180" />
              <mxPoint x="695" y="180" />
            </Array>
          </mxGeometry>
        </mxCell>
        <mxCell id="0f3AWLR8AiS9K6v6LXAR-4" value="&lt;div&gt;Q2&lt;/div&gt;&lt;div&gt;BC556&lt;br&gt;&lt;/div&gt;" style="verticalLabelPosition=bottom;shadow=0;dashed=0;align=left;html=1;verticalAlign=top;shape=mxgraph.electrical.transistors.pnp_transistor_1;strokeColor=#000000;fontColor=#000000;labelBackgroundColor=none;fillColor=none;" vertex="1" parent="0f3AWLR8AiS9K6v6LXAR-1">
          <mxGeometry x="618.5" y="210" width="76" height="80" as="geometry" />
        </mxCell>
        <mxCell id="0f3AWLR8AiS9K6v6LXAR-5" style="edgeStyle=orthogonalEdgeStyle;rounded=0;jumpStyle=arc;orthogonalLoop=1;jettySize=auto;html=1;exitX=0.7;exitY=1;exitDx=0;exitDy=0;exitPerimeter=0;endArrow=none;endFill=0;strokeColor=#000000;fontColor=#000000;labelBackgroundColor=none;" edge="1" parent="0f3AWLR8AiS9K6v6LXAR-1" source="0f3AWLR8AiS9K6v6LXAR-4" target="0f3AWLR8AiS9K6v6LXAR-23">
          <mxGeometry relative="1" as="geometry">
            <Array as="points">
              <mxPoint x="671" y="370" />
              <mxPoint x="709" y="370" />
              <mxPoint x="709" y="130" />
              <mxPoint x="645" y="130" />
            </Array>
          </mxGeometry>
        </mxCell>
        <mxCell id="0f3AWLR8AiS9K6v6LXAR-6" style="edgeStyle=orthogonalEdgeStyle;rounded=0;orthogonalLoop=1;jettySize=auto;html=1;exitX=0.7;exitY=1;exitDx=0;exitDy=0;exitPerimeter=0;strokeColor=#000000;fontColor=#000000;endArrow=none;endFill=0;jumpStyle=arc;" edge="1" parent="0f3AWLR8AiS9K6v6LXAR-1" source="0f3AWLR8AiS9K6v6LXAR-7" target="0f3AWLR8AiS9K6v6LXAR-24">
          <mxGeometry relative="1" as="geometry">
            <mxPoint x="600" y="110" as="targetPoint" />
            <Array as="points">
              <mxPoint x="671" y="503" />
              <mxPoint x="726" y="503" />
              <mxPoint x="726" y="160" />
              <mxPoint x="595" y="160" />
            </Array>
          </mxGeometry>
        </mxCell>
        <mxCell id="0f3AWLR8AiS9K6v6LXAR-7" value="&lt;div align=&quot;left&quot;&gt;Q3&lt;br&gt;&lt;/div&gt;&lt;div align=&quot;left&quot;&gt;BC337&lt;/div&gt;" style="verticalLabelPosition=bottom;shadow=0;dashed=0;align=left;html=1;verticalAlign=top;shape=mxgraph.electrical.transistors.npn_transistor_1;strokeColor=#000000;fontColor=#000000;labelBackgroundColor=none;fillColor=none;" vertex="1" parent="0f3AWLR8AiS9K6v6LXAR-1">
          <mxGeometry x="618.5" y="410" width="76" height="80" as="geometry" />
        </mxCell>
        <mxCell id="0f3AWLR8AiS9K6v6LXAR-8" style="edgeStyle=orthogonalEdgeStyle;rounded=0;jumpStyle=arc;orthogonalLoop=1;jettySize=auto;html=1;exitX=0.7;exitY=1;exitDx=0;exitDy=0;exitPerimeter=0;entryX=0.5;entryY=0;entryDx=0;entryDy=0;entryPerimeter=0;endArrow=none;endFill=0;strokeColor=#000000;fontColor=#000000;labelBackgroundColor=none;" edge="1" parent="0f3AWLR8AiS9K6v6LXAR-1" source="0f3AWLR8AiS9K6v6LXAR-9" target="0f3AWLR8AiS9K6v6LXAR-10">
          <mxGeometry relative="1" as="geometry">
            <Array as="points">
              <mxPoint x="511" y="390" />
              <mxPoint x="583" y="390" />
            </Array>
          </mxGeometry>
        </mxCell>
        <mxCell id="0f3AWLR8AiS9K6v6LXAR-9" value="&lt;div&gt;Q1&lt;br&gt;&lt;/div&gt;&lt;div&gt;BC337&lt;/div&gt;" style="verticalLabelPosition=bottom;shadow=0;dashed=0;align=left;html=1;verticalAlign=top;shape=mxgraph.electrical.transistors.npn_transistor_1;strokeColor=#000000;fontColor=#000000;labelBackgroundColor=none;fillColor=none;" vertex="1" parent="0f3AWLR8AiS9K6v6LXAR-1">
          <mxGeometry x="458" y="290" width="76" height="80" as="geometry" />
        </mxCell>
        <mxCell id="0f3AWLR8AiS9K6v6LXAR-10" value="" style="pointerEvents=1;verticalLabelPosition=bottom;shadow=0;dashed=0;align=center;html=1;verticalAlign=top;shape=mxgraph.electrical.signal_sources.protective_earth;strokeColor=#000000;fontColor=#000000;labelBackgroundColor=none;" vertex="1" parent="0f3AWLR8AiS9K6v6LXAR-1">
          <mxGeometry x="570" y="410" width="25" height="20" as="geometry" />
        </mxCell>
        <mxCell id="0f3AWLR8AiS9K6v6LXAR-11" style="edgeStyle=orthogonalEdgeStyle;rounded=0;jumpStyle=arc;orthogonalLoop=1;jettySize=auto;html=1;exitX=1;exitY=0.5;exitDx=0;exitDy=0;exitPerimeter=0;entryX=0;entryY=0.5;entryDx=0;entryDy=0;entryPerimeter=0;endArrow=none;endFill=0;strokeColor=#000000;fontColor=#000000;labelBackgroundColor=none;" edge="1" parent="0f3AWLR8AiS9K6v6LXAR-1" source="0f3AWLR8AiS9K6v6LXAR-13" target="0f3AWLR8AiS9K6v6LXAR-4">
          <mxGeometry relative="1" as="geometry">
            <Array as="points">
              <mxPoint x="609" y="250" />
            </Array>
          </mxGeometry>
        </mxCell>
        <mxCell id="0f3AWLR8AiS9K6v6LXAR-12" style="edgeStyle=orthogonalEdgeStyle;rounded=0;jumpStyle=arc;orthogonalLoop=1;jettySize=auto;html=1;exitX=0;exitY=0.5;exitDx=0;exitDy=0;exitPerimeter=0;entryX=0.7;entryY=0;entryDx=0;entryDy=0;entryPerimeter=0;endArrow=none;endFill=0;strokeColor=#000000;fontColor=#000000;labelBackgroundColor=none;" edge="1" parent="0f3AWLR8AiS9K6v6LXAR-1" source="0f3AWLR8AiS9K6v6LXAR-13" target="0f3AWLR8AiS9K6v6LXAR-9">
          <mxGeometry relative="1" as="geometry">
            <Array as="points">
              <mxPoint x="511" y="250" />
              <mxPoint x="511" y="290" />
            </Array>
          </mxGeometry>
        </mxCell>
        <mxCell id="0f3AWLR8AiS9K6v6LXAR-13" value="&lt;div&gt;R1&lt;/div&gt;&lt;div&gt;3.3k&lt;/div&gt;" style="pointerEvents=1;verticalLabelPosition=bottom;shadow=0;dashed=0;align=center;html=1;verticalAlign=top;shape=mxgraph.electrical.resistors.resistor_2;strokeColor=#000000;fontColor=#000000;labelBackgroundColor=none;" vertex="1" parent="0f3AWLR8AiS9K6v6LXAR-1">
          <mxGeometry x="518.5" y="240" width="100" height="20" as="geometry" />
        </mxCell>
        <mxCell id="0f3AWLR8AiS9K6v6LXAR-14" style="edgeStyle=orthogonalEdgeStyle;rounded=0;jumpStyle=arc;orthogonalLoop=1;jettySize=auto;html=1;exitX=1;exitY=0.5;exitDx=0;exitDy=0;exitPerimeter=0;entryX=0;entryY=0.5;entryDx=0;entryDy=0;entryPerimeter=0;endArrow=none;endFill=0;strokeColor=#000000;fontColor=#000000;labelBackgroundColor=none;" edge="1" parent="0f3AWLR8AiS9K6v6LXAR-1" source="0f3AWLR8AiS9K6v6LXAR-16" target="0f3AWLR8AiS9K6v6LXAR-9">
          <mxGeometry relative="1" as="geometry" />
        </mxCell>
        <mxCell id="0f3AWLR8AiS9K6v6LXAR-15" style="edgeStyle=orthogonalEdgeStyle;rounded=0;jumpStyle=arc;orthogonalLoop=1;jettySize=auto;html=1;exitX=0;exitY=0.5;exitDx=0;exitDy=0;exitPerimeter=0;endArrow=none;endFill=0;strokeColor=#000000;fontColor=#000000;labelBackgroundColor=none;" edge="1" parent="0f3AWLR8AiS9K6v6LXAR-1" source="0f3AWLR8AiS9K6v6LXAR-16" target="0f3AWLR8AiS9K6v6LXAR-20">
          <mxGeometry relative="1" as="geometry">
            <mxPoint x="300" y="210" as="targetPoint" />
            <Array as="points">
              <mxPoint x="430" y="540" />
            </Array>
          </mxGeometry>
        </mxCell>
        <mxCell id="0f3AWLR8AiS9K6v6LXAR-16" value="&lt;div&gt;R2&lt;/div&gt;&lt;div&gt;3.3k&lt;/div&gt;" style="pointerEvents=1;verticalLabelPosition=middle;shadow=0;dashed=0;align=center;html=1;verticalAlign=middle;shape=mxgraph.electrical.resistors.resistor_2;strokeColor=#000000;fontColor=#000000;labelBackgroundColor=none;direction=north;horizontal=1;labelPosition=left;spacingLeft=0;spacingRight=20;" vertex="1" parent="0f3AWLR8AiS9K6v6LXAR-1">
          <mxGeometry x="420" y="330" width="20" height="100" as="geometry" />
        </mxCell>
        <mxCell id="0f3AWLR8AiS9K6v6LXAR-17" style="edgeStyle=orthogonalEdgeStyle;rounded=0;jumpStyle=arc;orthogonalLoop=1;jettySize=auto;html=1;exitX=1;exitY=0.5;exitDx=0;exitDy=0;exitPerimeter=0;entryX=0;entryY=0.5;entryDx=0;entryDy=0;entryPerimeter=0;endArrow=none;endFill=0;strokeColor=#000000;fontColor=#000000;labelBackgroundColor=none;" edge="1" parent="0f3AWLR8AiS9K6v6LXAR-1" source="0f3AWLR8AiS9K6v6LXAR-19" target="0f3AWLR8AiS9K6v6LXAR-7">
          <mxGeometry relative="1" as="geometry" />
        </mxCell>
        <mxCell id="0f3AWLR8AiS9K6v6LXAR-18" style="edgeStyle=orthogonalEdgeStyle;rounded=0;jumpStyle=arc;orthogonalLoop=1;jettySize=auto;html=1;exitX=0;exitY=0.5;exitDx=0;exitDy=0;exitPerimeter=0;endArrow=none;endFill=0;strokeColor=#000000;fontColor=#000000;labelBackgroundColor=none;" edge="1" parent="0f3AWLR8AiS9K6v6LXAR-1" source="0f3AWLR8AiS9K6v6LXAR-19" target="0f3AWLR8AiS9K6v6LXAR-21">
          <mxGeometry relative="1" as="geometry">
            <mxPoint x="260.0000000000001" y="210" as="targetPoint" />
            <Array as="points">
              <mxPoint x="360" y="450" />
            </Array>
          </mxGeometry>
        </mxCell>
        <mxCell id="0f3AWLR8AiS9K6v6LXAR-19" value="&lt;div&gt;R3&lt;/div&gt;&lt;div&gt;3.3k&lt;/div&gt;" style="pointerEvents=1;verticalLabelPosition=bottom;shadow=0;dashed=0;align=center;html=1;verticalAlign=top;shape=mxgraph.electrical.resistors.resistor_2;strokeColor=#000000;fontColor=#000000;labelBackgroundColor=none;" vertex="1" parent="0f3AWLR8AiS9K6v6LXAR-1">
          <mxGeometry x="470" y="440" width="100" height="20" as="geometry" />
        </mxCell>
        <mxCell id="0f3AWLR8AiS9K6v6LXAR-20" value="&lt;div&gt;Unlock&lt;/div&gt;" style="text;html=1;align=center;verticalAlign=middle;resizable=0;points=[];autosize=1;strokeColor=#000000;fontColor=#000000;labelBackgroundColor=none;" vertex="1" parent="0f3AWLR8AiS9K6v6LXAR-1">
          <mxGeometry x="740" y="530" width="60" height="20" as="geometry" />
        </mxCell>
        <mxCell id="0f3AWLR8AiS9K6v6LXAR-21" value="Lock" style="text;html=1;align=center;verticalAlign=middle;resizable=0;points=[];autosize=1;strokeColor=#000000;fontColor=#000000;labelBackgroundColor=none;" vertex="1" parent="0f3AWLR8AiS9K6v6LXAR-1">
          <mxGeometry x="740" y="601" width="40" height="20" as="geometry" />
        </mxCell>
        <mxCell id="0f3AWLR8AiS9K6v6LXAR-22" value="&lt;div&gt;P1&lt;/div&gt;" style="text;html=1;align=center;verticalAlign=middle;resizable=0;points=[];autosize=1;strokeColor=#000000;fontColor=#000000;labelBackgroundColor=none;" vertex="1" parent="0f3AWLR8AiS9K6v6LXAR-1">
          <mxGeometry x="680" y="80" width="30" height="20" as="geometry" />
        </mxCell>
        <mxCell id="0f3AWLR8AiS9K6v6LXAR-23" value="&lt;div&gt;P2&lt;/div&gt;" style="text;html=1;align=center;verticalAlign=middle;resizable=0;points=[];autosize=1;strokeColor=#000000;fontColor=#000000;labelBackgroundColor=none;" vertex="1" parent="0f3AWLR8AiS9K6v6LXAR-1">
          <mxGeometry x="630" y="80" width="30" height="20" as="geometry" />
        </mxCell>
        <mxCell id="0f3AWLR8AiS9K6v6LXAR-24" value="&lt;div&gt;P4&lt;/div&gt;" style="text;html=1;align=center;verticalAlign=middle;resizable=0;points=[];autosize=1;strokeColor=#000000;fontColor=#000000;labelBackgroundColor=none;" vertex="1" parent="0f3AWLR8AiS9K6v6LXAR-1">
          <mxGeometry x="580" y="80" width="30" height="20" as="geometry" />
        </mxCell>
        <mxCell id="0f3AWLR8AiS9K6v6LXAR-25" value="&lt;font style=&quot;font-size: 48px&quot;&gt;VGZ&lt;/font&gt;" style="text;html=1;align=center;verticalAlign=middle;resizable=0;points=[];autosize=1;fontColor=#000000;" vertex="1" parent="0f3AWLR8AiS9K6v6LXAR-1">
          <mxGeometry x="230" y="30" width="120" height="30" as="geometry" />
        </mxCell>
        <mxCell id="0f3AWLR8AiS9K6v6LXAR-26" value="+3.3V" style="rounded=0;whiteSpace=wrap;html=1;strokeColor=#000000;fontColor=#000000;align=center;" vertex="1" parent="0f3AWLR8AiS9K6v6LXAR-1">
          <mxGeometry x="39" y="252" width="50" height="25" as="geometry" />
        </mxCell>
        <mxCell id="0f3AWLR8AiS9K6v6LXAR-27" value="&lt;div&gt;DOOR&lt;/div&gt;&lt;div&gt;HANDLE&lt;/div&gt;&lt;div&gt;SENSOR&lt;br&gt;&lt;/div&gt;" style="rounded=0;whiteSpace=wrap;html=1;strokeColor=#000000;fontColor=#000000;align=center;" vertex="1" parent="0f3AWLR8AiS9K6v6LXAR-1">
          <mxGeometry x="39" y="323" width="67" height="51" as="geometry" />
        </mxCell>
        <mxCell id="0f3AWLR8AiS9K6v6LXAR-28" value="&lt;div&gt;DOOR&lt;/div&gt;&lt;div&gt;HANDLE&lt;/div&gt;&lt;div&gt;OUT&lt;br&gt;&lt;/div&gt;" style="rounded=0;whiteSpace=wrap;html=1;strokeColor=#000000;fontColor=#000000;align=center;" vertex="1" parent="0f3AWLR8AiS9K6v6LXAR-1">
          <mxGeometry x="39" y="413" width="60" height="46" as="geometry" />
        </mxCell>
        <mxCell id="0f3AWLR8AiS9K6v6LXAR-29" value="&lt;div&gt;DOOR&lt;/div&gt;&lt;div&gt;LOCK&lt;/div&gt;&lt;div&gt;SENSOR&lt;br&gt;&lt;/div&gt;" style="rounded=0;whiteSpace=wrap;html=1;strokeColor=#000000;fontColor=#000000;align=center;" vertex="1" parent="0f3AWLR8AiS9K6v6LXAR-1">
          <mxGeometry x="39" y="499" width="62" height="48" as="geometry" />
        </mxCell>
        <mxCell id="0f3AWLR8AiS9K6v6LXAR-30" value="&lt;div&gt;DOOR&lt;/div&gt;&lt;div&gt;LOCK&lt;/div&gt;&lt;div&gt;OUT&lt;br&gt;&lt;/div&gt;" style="rounded=0;whiteSpace=wrap;html=1;strokeColor=#000000;fontColor=#000000;align=center;" vertex="1" parent="0f3AWLR8AiS9K6v6LXAR-1">
          <mxGeometry x="39" y="585" width="51" height="48" as="geometry" />
        </mxCell>
        <mxCell id="0f3AWLR8AiS9K6v6LXAR-31" style="edgeStyle=orthogonalEdgeStyle;rounded=0;jumpStyle=arc;orthogonalLoop=1;jettySize=auto;html=1;exitX=0.4;exitY=0.05;exitDx=0;exitDy=0;exitPerimeter=0;endArrow=none;endFill=0;strokeColor=#000000;fontColor=#000000;" edge="1" parent="0f3AWLR8AiS9K6v6LXAR-1" source="0f3AWLR8AiS9K6v6LXAR-36" target="0f3AWLR8AiS9K6v6LXAR-37">
          <mxGeometry relative="1" as="geometry">
            <Array as="points">
              <mxPoint x="274" y="112" />
              <mxPoint x="63" y="112" />
            </Array>
          </mxGeometry>
        </mxCell>
        <mxCell id="0f3AWLR8AiS9K6v6LXAR-32" style="edgeStyle=orthogonalEdgeStyle;rounded=0;jumpStyle=arc;orthogonalLoop=1;jettySize=auto;html=1;endArrow=none;endFill=0;strokeColor=#000000;fontColor=#000000;exitX=0;exitY=0.165;exitDx=0;exitDy=0;exitPerimeter=0;" edge="1" parent="0f3AWLR8AiS9K6v6LXAR-1" source="0f3AWLR8AiS9K6v6LXAR-36" target="0f3AWLR8AiS9K6v6LXAR-26">
          <mxGeometry relative="1" as="geometry">
            <mxPoint x="224" y="265" as="sourcePoint" />
            <mxPoint x="149" y="291" as="targetPoint" />
            <Array as="points">
              <mxPoint x="173" y="247" />
              <mxPoint x="173" y="265" />
            </Array>
          </mxGeometry>
        </mxCell>
        <mxCell id="0f3AWLR8AiS9K6v6LXAR-33" style="edgeStyle=orthogonalEdgeStyle;rounded=0;jumpStyle=arc;orthogonalLoop=1;jettySize=auto;html=1;exitX=0;exitY=0.835;exitDx=0;exitDy=0;exitPerimeter=0;entryX=0;entryY=0.5;entryDx=0;entryDy=0;entryPerimeter=0;endArrow=none;endFill=0;strokeColor=#000000;fontColor=#000000;" edge="1" parent="0f3AWLR8AiS9K6v6LXAR-1" source="0f3AWLR8AiS9K6v6LXAR-36" target="0f3AWLR8AiS9K6v6LXAR-42">
          <mxGeometry relative="1" as="geometry">
            <Array as="points">
              <mxPoint x="185" y="307" />
              <mxPoint x="185" y="370" />
            </Array>
          </mxGeometry>
        </mxCell>
        <mxCell id="0f3AWLR8AiS9K6v6LXAR-34" style="edgeStyle=orthogonalEdgeStyle;rounded=0;jumpStyle=arc;orthogonalLoop=1;jettySize=auto;html=1;exitX=0.4;exitY=0.95;exitDx=0;exitDy=0;exitPerimeter=0;entryX=0.5;entryY=0;entryDx=0;entryDy=0;entryPerimeter=0;endArrow=none;endFill=0;strokeColor=#000000;fontColor=#000000;" edge="1" parent="0f3AWLR8AiS9K6v6LXAR-1" source="0f3AWLR8AiS9K6v6LXAR-36" target="0f3AWLR8AiS9K6v6LXAR-44">
          <mxGeometry relative="1" as="geometry" />
        </mxCell>
        <mxCell id="0f3AWLR8AiS9K6v6LXAR-35" style="edgeStyle=orthogonalEdgeStyle;rounded=0;jumpStyle=arc;orthogonalLoop=1;jettySize=auto;html=1;exitX=1;exitY=0.5;exitDx=0;exitDy=0;exitPerimeter=0;endArrow=none;endFill=0;" edge="1" parent="0f3AWLR8AiS9K6v6LXAR-1" source="0f3AWLR8AiS9K6v6LXAR-36" target="0f3AWLR8AiS9K6v6LXAR-45">
          <mxGeometry relative="1" as="geometry">
            <Array as="points">
              <mxPoint x="339" y="277" />
              <mxPoint x="339" y="576" />
            </Array>
          </mxGeometry>
        </mxCell>
        <mxCell id="0f3AWLR8AiS9K6v6LXAR-36" value="&lt;div&gt;LM393&lt;/div&gt;" style="verticalLabelPosition=bottom;shadow=0;dashed=0;align=left;html=1;verticalAlign=top;shape=mxgraph.electrical.abstract.ota_1;strokeColor=#000000;fontColor=#000000;" vertex="1" parent="0f3AWLR8AiS9K6v6LXAR-1">
          <mxGeometry x="234" y="232" width="100" height="90" as="geometry" />
        </mxCell>
        <mxCell id="0f3AWLR8AiS9K6v6LXAR-37" value="+12V" style="rounded=0;whiteSpace=wrap;html=1;strokeColor=#000000;fontColor=#000000;align=center;" vertex="1" parent="0f3AWLR8AiS9K6v6LXAR-1">
          <mxGeometry x="39" y="183" width="48" height="24" as="geometry" />
        </mxCell>
        <mxCell id="0f3AWLR8AiS9K6v6LXAR-38" style="edgeStyle=orthogonalEdgeStyle;rounded=0;jumpStyle=arc;orthogonalLoop=1;jettySize=auto;html=1;exitX=0;exitY=0.5;exitDx=0;exitDy=0;exitPerimeter=0;endArrow=none;endFill=0;strokeColor=#000000;fontColor=#000000;" edge="1" parent="0f3AWLR8AiS9K6v6LXAR-1" source="0f3AWLR8AiS9K6v6LXAR-39" target="0f3AWLR8AiS9K6v6LXAR-37">
          <mxGeometry relative="1" as="geometry">
            <Array as="points">
              <mxPoint x="185" y="112" />
            </Array>
          </mxGeometry>
        </mxCell>
        <mxCell id="0f3AWLR8AiS9K6v6LXAR-39" value="&lt;div&gt;R4&lt;/div&gt;&lt;div&gt;10k&lt;br&gt;&lt;/div&gt;" style="pointerEvents=1;verticalLabelPosition=middle;shadow=0;dashed=0;align=right;html=1;verticalAlign=middle;shape=mxgraph.electrical.resistors.resistor_2;strokeColor=#000000;fontColor=#000000;direction=south;labelPosition=left;spacingRight=10;" vertex="1" parent="0f3AWLR8AiS9K6v6LXAR-1">
          <mxGeometry x="175" y="119" width="20" height="100" as="geometry" />
        </mxCell>
        <mxCell id="0f3AWLR8AiS9K6v6LXAR-40" style="edgeStyle=orthogonalEdgeStyle;rounded=0;jumpStyle=arc;orthogonalLoop=1;jettySize=auto;html=1;exitX=0;exitY=0.5;exitDx=0;exitDy=0;exitPerimeter=0;entryX=1;entryY=0.5;entryDx=0;entryDy=0;entryPerimeter=0;endArrow=none;endFill=0;strokeColor=#000000;fontColor=#000000;" edge="1" parent="0f3AWLR8AiS9K6v6LXAR-1" source="0f3AWLR8AiS9K6v6LXAR-42" target="0f3AWLR8AiS9K6v6LXAR-39">
          <mxGeometry relative="1" as="geometry">
            <Array as="points">
              <mxPoint x="185" y="370" />
            </Array>
          </mxGeometry>
        </mxCell>
        <mxCell id="0f3AWLR8AiS9K6v6LXAR-41" style="edgeStyle=orthogonalEdgeStyle;rounded=0;jumpStyle=arc;orthogonalLoop=1;jettySize=auto;html=1;exitX=1;exitY=0.5;exitDx=0;exitDy=0;exitPerimeter=0;entryX=0.5;entryY=0;entryDx=0;entryDy=0;entryPerimeter=0;endArrow=none;endFill=0;strokeColor=#000000;fontColor=#000000;" edge="1" parent="0f3AWLR8AiS9K6v6LXAR-1" source="0f3AWLR8AiS9K6v6LXAR-42" target="0f3AWLR8AiS9K6v6LXAR-43">
          <mxGeometry relative="1" as="geometry" />
        </mxCell>
        <mxCell id="0f3AWLR8AiS9K6v6LXAR-42" value="&lt;div&gt;R5&lt;/div&gt;&lt;div&gt;3.3k&lt;br&gt;&lt;/div&gt;" style="pointerEvents=1;verticalLabelPosition=middle;shadow=0;dashed=0;align=right;html=1;verticalAlign=middle;shape=mxgraph.electrical.resistors.resistor_2;strokeColor=#000000;fontColor=#000000;direction=south;labelPosition=left;spacingRight=10;" vertex="1" parent="0f3AWLR8AiS9K6v6LXAR-1">
          <mxGeometry x="278" y="370" width="20" height="100" as="geometry" />
        </mxCell>
        <mxCell id="0f3AWLR8AiS9K6v6LXAR-43" value="" style="pointerEvents=1;verticalLabelPosition=bottom;shadow=0;dashed=0;align=center;html=1;verticalAlign=top;shape=mxgraph.electrical.signal_sources.protective_earth;strokeColor=#000000;fontColor=#000000;labelBackgroundColor=none;" vertex="1" parent="0f3AWLR8AiS9K6v6LXAR-1">
          <mxGeometry x="275.5" y="477" width="25" height="20" as="geometry" />
        </mxCell>
        <mxCell id="0f3AWLR8AiS9K6v6LXAR-44" value="" style="pointerEvents=1;verticalLabelPosition=bottom;shadow=0;dashed=0;align=center;html=1;verticalAlign=top;shape=mxgraph.electrical.signal_sources.protective_earth;strokeColor=#000000;fontColor=#000000;labelBackgroundColor=none;" vertex="1" parent="0f3AWLR8AiS9K6v6LXAR-1">
          <mxGeometry x="295" y="325" width="25" height="20" as="geometry" />
        </mxCell>
        <mxCell id="0f3AWLR8AiS9K6v6LXAR-45" value="Engine" style="text;html=1;align=center;verticalAlign=middle;resizable=0;points=[];autosize=1;strokeColor=#000000;fontColor=#000000;labelBackgroundColor=none;" vertex="1" parent="0f3AWLR8AiS9K6v6LXAR-1">
          <mxGeometry x="740" y="567" width="53" height="18" as="geometry" />
        </mxCell>
        <mxCell id="0f3AWLR8AiS9K6v6LXAR-46" style="edgeStyle=orthogonalEdgeStyle;rounded=0;orthogonalLoop=1;jettySize=auto;html=1;exitX=0;exitY=0.5;exitDx=0;exitDy=0;exitPerimeter=0;endArrow=none;endFill=0;jumpStyle=arc;" edge="1" parent="0f3AWLR8AiS9K6v6LXAR-1" source="0f3AWLR8AiS9K6v6LXAR-48" target="0f3AWLR8AiS9K6v6LXAR-26">
          <mxGeometry relative="1" as="geometry">
            <mxPoint x="129" y="299" as="targetPoint" />
            <Array as="points">
              <mxPoint x="129" y="222" />
              <mxPoint x="129" y="265" />
            </Array>
          </mxGeometry>
        </mxCell>
        <mxCell id="0f3AWLR8AiS9K6v6LXAR-47" style="edgeStyle=orthogonalEdgeStyle;rounded=0;jumpStyle=arc;orthogonalLoop=1;jettySize=auto;html=1;exitX=1;exitY=0.5;exitDx=0;exitDy=0;exitPerimeter=0;entryX=1;entryY=0.5;entryDx=0;entryDy=0;entryPerimeter=0;endArrow=none;endFill=0;" edge="1" parent="0f3AWLR8AiS9K6v6LXAR-1" source="0f3AWLR8AiS9K6v6LXAR-48" target="0f3AWLR8AiS9K6v6LXAR-36">
          <mxGeometry relative="1" as="geometry" />
        </mxCell>
        <mxCell id="0f3AWLR8AiS9K6v6LXAR-48" value="&lt;div&gt;R8&lt;/div&gt;&lt;div&gt;10k&lt;br&gt;&lt;/div&gt;" style="pointerEvents=1;verticalLabelPosition=bottom;shadow=0;dashed=0;align=center;html=1;verticalAlign=top;shape=mxgraph.electrical.resistors.resistor_2;strokeColor=#000000;fontColor=#000000;" vertex="1" parent="0f3AWLR8AiS9K6v6LXAR-1">
          <mxGeometry x="298" y="212" width="100" height="20" as="geometry" />
        </mxCell>
        <mxCell id="0f3AWLR8AiS9K6v6LXAR-49" style="edgeStyle=orthogonalEdgeStyle;rounded=0;jumpStyle=arc;orthogonalLoop=1;jettySize=auto;html=1;exitX=0;exitY=0.5;exitDx=0;exitDy=0;exitPerimeter=0;endArrow=none;endFill=0;" edge="1" parent="0f3AWLR8AiS9K6v6LXAR-1" source="0f3AWLR8AiS9K6v6LXAR-52" target="0f3AWLR8AiS9K6v6LXAR-26">
          <mxGeometry relative="1" as="geometry">
            <Array as="points">
              <mxPoint x="141" y="265" />
              <mxPoint x="141" y="265" />
            </Array>
          </mxGeometry>
        </mxCell>
        <mxCell id="0f3AWLR8AiS9K6v6LXAR-50" style="edgeStyle=orthogonalEdgeStyle;rounded=0;jumpStyle=arc;orthogonalLoop=1;jettySize=auto;html=1;exitX=1;exitY=0.5;exitDx=0;exitDy=0;exitPerimeter=0;endArrow=none;endFill=0;" edge="1" parent="0f3AWLR8AiS9K6v6LXAR-1" source="0f3AWLR8AiS9K6v6LXAR-52" target="0f3AWLR8AiS9K6v6LXAR-27">
          <mxGeometry relative="1" as="geometry" />
        </mxCell>
        <mxCell id="0f3AWLR8AiS9K6v6LXAR-51" style="edgeStyle=orthogonalEdgeStyle;rounded=0;jumpStyle=arc;orthogonalLoop=1;jettySize=auto;html=1;exitX=1;exitY=0.5;exitDx=0;exitDy=0;exitPerimeter=0;endArrow=none;endFill=0;" edge="1" parent="0f3AWLR8AiS9K6v6LXAR-1" source="0f3AWLR8AiS9K6v6LXAR-52" target="0f3AWLR8AiS9K6v6LXAR-28">
          <mxGeometry relative="1" as="geometry">
            <mxPoint x="152" y="446" as="targetPoint" />
            <Array as="points">
              <mxPoint x="158" y="436" />
            </Array>
          </mxGeometry>
        </mxCell>
        <mxCell id="0f3AWLR8AiS9K6v6LXAR-52" value="&lt;div&gt;R6&lt;/div&gt;&lt;div&gt;10k&lt;br&gt;&lt;/div&gt;" style="pointerEvents=1;verticalLabelPosition=middle;shadow=0;dashed=0;align=right;html=1;verticalAlign=middle;shape=mxgraph.electrical.resistors.resistor_2;strokeColor=#000000;fontColor=#000000;direction=south;labelPosition=left;spacingRight=10;" vertex="1" parent="0f3AWLR8AiS9K6v6LXAR-1">
          <mxGeometry x="148" y="265" width="20" height="100" as="geometry" />
        </mxCell>
        <mxCell id="0f3AWLR8AiS9K6v6LXAR-53" style="edgeStyle=orthogonalEdgeStyle;rounded=0;jumpStyle=arc;orthogonalLoop=1;jettySize=auto;html=1;exitX=0;exitY=0.5;exitDx=0;exitDy=0;exitPerimeter=0;endArrow=none;endFill=0;" edge="1" parent="0f3AWLR8AiS9K6v6LXAR-1" source="0f3AWLR8AiS9K6v6LXAR-56" target="0f3AWLR8AiS9K6v6LXAR-26">
          <mxGeometry relative="1" as="geometry">
            <Array as="points">
              <mxPoint x="173" y="473" />
              <mxPoint x="173" y="265" />
            </Array>
          </mxGeometry>
        </mxCell>
        <mxCell id="0f3AWLR8AiS9K6v6LXAR-54" style="edgeStyle=orthogonalEdgeStyle;rounded=0;jumpStyle=arc;orthogonalLoop=1;jettySize=auto;html=1;exitX=1;exitY=0.5;exitDx=0;exitDy=0;exitPerimeter=0;endArrow=none;endFill=0;" edge="1" parent="0f3AWLR8AiS9K6v6LXAR-1" source="0f3AWLR8AiS9K6v6LXAR-56" target="0f3AWLR8AiS9K6v6LXAR-30">
          <mxGeometry relative="1" as="geometry">
            <Array as="points">
              <mxPoint x="173" y="609" />
            </Array>
          </mxGeometry>
        </mxCell>
        <mxCell id="0f3AWLR8AiS9K6v6LXAR-55" style="edgeStyle=orthogonalEdgeStyle;rounded=0;jumpStyle=arc;orthogonalLoop=1;jettySize=auto;html=1;exitX=1;exitY=0.5;exitDx=0;exitDy=0;exitPerimeter=0;endArrow=none;endFill=0;" edge="1" parent="0f3AWLR8AiS9K6v6LXAR-1" source="0f3AWLR8AiS9K6v6LXAR-56" target="0f3AWLR8AiS9K6v6LXAR-29">
          <mxGeometry relative="1" as="geometry">
            <Array as="points">
              <mxPoint x="173" y="593" />
              <mxPoint x="117" y="593" />
              <mxPoint x="117" y="523" />
            </Array>
          </mxGeometry>
        </mxCell>
        <mxCell id="0f3AWLR8AiS9K6v6LXAR-56" value="&lt;div&gt;R7&lt;/div&gt;&lt;div&gt;10k&lt;br&gt;&lt;/div&gt;" style="pointerEvents=1;verticalLabelPosition=middle;shadow=0;dashed=0;align=right;html=1;verticalAlign=middle;shape=mxgraph.electrical.resistors.resistor_2;strokeColor=#000000;fontColor=#000000;direction=south;labelPosition=left;spacingRight=10;" vertex="1" parent="0f3AWLR8AiS9K6v6LXAR-1">
          <mxGeometry x="163" y="473" width="20" height="100" as="geometry" />
        </mxCell>
      </root>
    </mxGraphModel>
  </diagram>
</mxfile>
